<svg xmlns="http://www.w3.org/2000/svg" width="200" height="200" viewBox="0 0 200 200">
  <circle cx="100" cy="100" r="82" fill="none" stroke="#1E3D2B" stroke-width="5"></circle>
  <line x1="100" y1="10" x2="100" y2="24" stroke="#1E3D2B" stroke-width="5" stroke-linecap="round"></line>
  <line x1="100" y1="176" x2="100" y2="190" stroke="#1E3D2B" stroke-width="5" stroke-linecap="round"></line>
  <line x1="10" y1="100" x2="24" y2="100" stroke="#1E3D2B" stroke-width="5" stroke-linecap="round"></line>
  <line x1="176" y1="100" x2="190" y2="100" stroke="#1E3D2B" stroke-width="5" stroke-linecap="round"></line>
  <path d="M100,32 C118,58 118,82 100,100 C82,82 82,58 100,32 Z" fill="#A8CD6B"></path>
  <path d="M100,168 C118,142 118,118 100,100 C82,118 82,142 100,168 Z" fill="#1E3D2B"></path>
  <path d="M100,40 C100,58 100,78 100,96" stroke="#7FB069" stroke-width="2.5" fill="none" opacity="0.7"></path>
  <path d="M100,160 C100,142 100,122 100,104" stroke="#4F8F5B" stroke-width="2.5" fill="none" opacity="0.5"></path>
  <circle cx="100" cy="100" r="8" fill="#1E3D2B"></circle>
  <circle cx="100" cy="100" r="3" fill="#F4EFE2"></circle>
</svg>
